<?xml version="1.0" encoding="UTF-8"?>
<svg id="Layer_1" data-name="Layer 1" xmlns="http://www.w3.org/2000/svg" viewBox="0 0 1005.12 303.46">
  <defs>
    <style>
      .cls-1 {
        fill: #0b193f;
      }

      .cls-2 {
        fill: #fbc918;
      }
    </style>
  </defs>
  <g>
    <g>
      <path class="cls-1" d="M438.28,149.46c-15.28,0-21.33,13.31-21.33,27.87s6.05,27.97,21.33,27.97c13.2,0,18.26-8.98,19.05-17.96h11.81c-1.59,16.62-12.5,28.49-30.56,28.49-20.44,0-33.34-16.2-33.34-38.5s12.9-38.39,33.34-38.39c17.96,0,28.87,11.87,30.56,26.94h-11.81c-1.29-7.43-5.95-16.41-19.05-16.41Z"/>
      <path class="cls-1" d="M489.67,140.48v30.55h33.54v-30.55h11.81v73.79h-11.81v-32.72h-33.54v32.72h-11.81v-73.79h11.81Z"/>
      <path class="cls-1" d="M559.13,196.83l-5.75,17.44h-12.01l26.1-73.79h12.4l26,73.79h-12.01l-5.75-17.44h-28.97ZM584.93,186.61l-11.11-34.88h-.2l-11.21,34.88h22.52Z"/>
      <path class="cls-1" d="M624.61,140.48v73.79h-11.81v-73.79h11.81Z"/>
      <path class="cls-1" d="M636.82,140.48h13.2l31.95,55.42h.2v-55.42h11.81v73.79h-13.1l-32.05-55.21h-.2v55.21h-11.81v-73.79Z"/>
    </g>
    <g>
      <path class="cls-1" d="M419.11,28.37v36.43l32.15-36.43h14.09l-27.58,31.27,29.27,42.52h-13.79l-23.22-33.95-10.91,12.18v21.78h-11.81V28.37h11.81Z"/>
      <path class="cls-1" d="M475.81,28.37h13.2l31.95,55.42h.2V28.37h11.81v73.79h-13.1l-32.05-55.21h-.2v55.21h-11.81V28.37Z"/>
      <path class="cls-1" d="M542.8,65.22c0-22.19,13.4-38.39,34.83-38.39s34.83,16.2,34.83,38.39-13.49,38.5-34.83,38.5-34.83-16.31-34.83-38.5ZM600.65,65.22c0-14.86-6.75-27.87-23.02-27.87s-23.12,13-23.12,27.87,6.85,27.97,23.12,27.97,23.02-13,23.02-27.97Z"/>
      <path class="cls-1" d="M624.56,28.37l12.11,57.18h.2l14.29-57.18h12.1l14.39,57.18h.2l12.1-57.18h12.1l-17.76,73.79h-12.4l-14.59-57.8h-.2l-14.49,57.8h-12.5l-17.66-73.79h12.1Z"/>
      <polygon class="cls-1" points="752.56 90.36 752.56 102.19 705.3 102.19 705.3 28.37 717.13 28.37 717.13 90.36 752.56 90.36"/>
      <path class="cls-1" d="M913.94,37.35c-15.18,0-21.43,14.04-21.43,27.87s4.86,27.97,21.04,27.97c11.21,0,20.14-8.05,20.24-19.82h-20.04v-9.91h32.05v38.7c-3.57.01-7.15.03-10.72.04,0-3.38,0-6.77,0-10.15h-.2c-4.76,7.43-11.41,11.66-22.13,11.66-20.54,0-32.05-16.2-32.05-38.5s12.9-38.39,33.34-38.39c18.46,0,28.38,10.42,30.56,24.56h-11.81c-1.79-8.77-8.33-14.04-18.85-14.04Z"/>
      <path class="cls-1" d="M1005.12,59.08v10.18c-13.17.03-26.34.05-39.52.08v22.4h39.52v10.42h-51.32V28.37h51.3v10.42h-39.49v20.02c13.17.09,26.34.17,39.52.26Z"/>
      <rect class="cls-1" x="806.33" y="43.81" width="11.81" height="42.91" rx=".5" ry=".5" transform="translate(746.97 877.5) rotate(-90)"/>
      <path class="cls-1" d="M835.9,28.36h-14.73c-1.67,0-3.02,1.35-3.02,3.02v6.04c0,1.67,1.35,3.02,3.02,3.02h14.79c13.2,0,23.9,10.7,23.9,23.9v1.87c0,13.15-10.76,23.9-23.9,23.9h-14.79c-1.67,0-3.02,1.35-3.02,3.02v6.04c0,1.67,1.35,3.02,3.02,3.02h14.79c19.87,0,35.97-16.11,35.97-35.97v-1.81c0-19.9-16.13-36.03-36.03-36.03ZM752.55,64.33v1.87c0,19.87,16.11,35.97,35.97,35.97h14.79c1.67,0,3.02-1.35,3.02-3.02v-6.04c0-1.67-1.35-3.02-3.02-3.02h-14.79c-13.15,0-23.9-10.76-23.9-23.9v-1.81c0-13.22,10.74-23.96,23.9-23.96h14.79c1.67,0,3.02-1.35,3.02-3.02v-6.04c0-1.67-1.35-3.02-3.02-3.02h-14.79c-19.87,0-35.97,16.1-35.97,35.97Z"/>
    </g>
    <g>
      <path class="cls-1" d="M715.53,196.29h4.74c2.29,0,3.76,1.21,3.76,3.31,0,1.62-.79,2.55-2.07,2.88v.03c2.56.5,1.63,5.03,2.22,5.22v.11h-1.94c-.51-.48.53-4.46-2.14-4.46h-2.72v4.46h-1.85v-11.56ZM717.38,201.74h2.5c1.14,0,2.32-.23,2.32-1.91s-1.18-1.91-2.32-1.91h-2.5v3.81Z"/>
      <path class="cls-1" d="M719.86,214.27c-6.73,0-12.2-5.47-12.2-12.2s5.47-12.2,12.2-12.2,12.2,5.47,12.2,12.2-5.47,12.2-12.2,12.2ZM719.86,191.89c-5.61,0-10.18,4.57-10.18,10.18s4.57,10.18,10.18,10.18,10.18-4.57,10.18-10.18-4.57-10.18-10.18-10.18Z"/>
    </g>
  </g>
  <path class="cls-2" d="M341.89,23.89L290.52.73c.09,25.72.19,51.45.28,77.17-36.22-16.59-72.45-33.18-108.67-49.76-6.96-3.44-15.1-3.52-22.21-.22l-108.62,50.5V0L0,23.16l.07,202.57v.07l51.3,23.16v-90.88l93.74,41.7c-.04,30.59-.07,61.17-.11,91.76,8.76,3.97,17.52,7.94,26.28,11.91,8.41-3.81,16.83-7.63,25.24-11.44-.04-30.62-.07-61.24-.11-91.86,31.45-13.52,62.89-27.04,94.34-40.56-.01,22.55-.02,42.98-.02,45.09,0,22.39,0,42.7,0,44.78,17.42-7.91,34.84-15.82,52.26-23.73-.37-67.28-.73-134.56-1.1-201.84ZM171.06,155.15l-83.4-37.08,82.82-38.48c27.97,12.83,55.94,25.67,83.92,38.5-27.78,12.35-55.55,24.71-83.33,37.06Z"/>
</svg>