<?xml version="1.0" encoding="UTF-8"?>
<svg id="Layer_1" data-name="Layer 1" xmlns="http://www.w3.org/2000/svg" viewBox="0 0 541.78 479.33">
  <defs>
    <style>
      .cls-1 {
        fill: #fbc918;
      }
    </style>
  </defs>
  <path class="cls-1" d="M540.04,37.74L458.89,1.16c.15,40.63.29,81.27.44,121.9-57.22-26.2-114.44-52.4-171.66-78.61-11-5.44-23.85-5.56-35.08-.35L81.03,123.87V0L0,36.58l.12,319.97v.12l81.04,36.58v-143.55l148.06,65.87c-.06,48.31-.11,96.63-.17,144.94,13.84,6.27,27.67,12.54,41.51,18.81,13.29-6.03,26.58-12.05,39.87-18.07-.06-48.37-.12-96.73-.18-145.1,49.67-21.35,99.34-42.71,149.01-64.06-.02,35.61-.03,67.89-.03,71.22,0,35.36,0,67.44,0,70.73,27.51-12.5,55.03-24.99,82.54-37.49-.58-106.27-1.16-212.54-1.74-318.81ZM270.19,245.07l-131.74-58.58,130.81-60.78c44.18,20.27,88.37,40.54,132.55,60.81-43.87,19.51-87.75,39.03-131.62,58.54Z"/>
</svg>